<svg xmlns="http://www.w3.org/2000/svg" version="1.1" xmlns:xlink="http://www.w3.org/1999/xlink" width="125" height="144"><svg width="125" height="144" viewBox="0 0 125 144" id="svg2" sodipodi:docname="logo.svg" inkscape:version="1.4.2 (f4327f4, 2025-05-13)" inkscape:export-filename="ohvbd\man\figures\logo-10.png" inkscape:export-xdpi="184.32001" inkscape:export-ydpi="184.32001" xmlns:inkscape="http://www.inkscape.org/namespaces/inkscape" xmlns:sodipodi="http://sodipodi.sourceforge.net/DTD/sodipodi-0.dtd" xmlns:svg="http://www.w3.org/2000/svg">
  <defs id="defs2">
    <rect x="18.915106" y="47.376154" width="116.49584" height="79.019183" id="rect1"></rect>
    <linearGradient id="linearGradient39" inkscape:collect="always">
      <stop style="stop-color:#5bcffb;stop-opacity:1;" offset="0" id="stop40"></stop>
      <stop style="stop-color:#5bcffb;stop-opacity:1;" offset="0.19823435" id="stop42"></stop>
      <stop style="stop-color:#f5abb9;stop-opacity:1;" offset="0.19823435" id="stop43"></stop>
      <stop style="stop-color:#f5abb9;stop-opacity:1;" offset="0.40308988" id="stop44"></stop>
      <stop style="stop-color:#f3f3f3;stop-opacity:1;" offset="0.40308988" id="stop45"></stop>
      <stop style="stop-color:#fceaec;stop-opacity:1;" offset="0.60277891" id="stop46"></stop>
      <stop style="stop-color:#f5abb9;stop-opacity:1;" offset="0.60277891" id="stop47"></stop>
      <stop style="stop-color:#f5abb9;stop-opacity:1;" offset="0.79957116" id="stop48"></stop>
      <stop style="stop-color:#5bcffb;stop-opacity:1;" offset="0.79957116" id="stop49"></stop>
      <stop style="stop-color:#5bcffb;stop-opacity:1;" offset="1" id="stop41"></stop>
    </linearGradient>
    <linearGradient id="linearGradient32" inkscape:collect="always">
      <stop style="stop-color:#fcf431;stop-opacity:1;" offset="0" id="stop32"></stop>
      <stop style="stop-color:#fcf431;stop-opacity:1;" offset="0.24799357" id="stop34"></stop>
      <stop style="stop-color:#f1f1f1;stop-opacity:1;" offset="0.24799357" id="stop35"></stop>
      <stop style="stop-color:#f1f1f1;stop-opacity:1;" offset="0.49999374" id="stop36"></stop>
      <stop style="stop-color:#9d59d2;stop-opacity:1;" offset="0.49999374" id="stop37"></stop>
      <stop style="stop-color:#9d59d2;stop-opacity:1;" offset="0.75366169" id="stop38"></stop>
      <stop style="stop-color:#282828;stop-opacity:1;" offset="0.75366169" id="stop39"></stop>
      <stop style="stop-color:#282828;stop-opacity:1;" offset="1" id="stop33"></stop>
    </linearGradient>
    <linearGradient id="linearGradient26" inkscape:collect="always">
      <stop style="stop-color:#d60270;stop-opacity:1;" offset="0" id="stop26"></stop>
      <stop style="stop-color:#d60270;stop-opacity:1;" offset="0.3988764" id="stop28"></stop>
      <stop style="stop-color:#9b4f96;stop-opacity:1;" offset="0.3988764" id="stop29"></stop>
      <stop style="stop-color:#9b4f96;stop-opacity:1;" offset="0.60052168" id="stop30"></stop>
      <stop style="stop-color:#0038a8;stop-opacity:1;" offset="0.60052168" id="stop31"></stop>
      <stop style="stop-color:#0038a8;stop-opacity:1;" offset="1" id="stop27"></stop>
    </linearGradient>
    <linearGradient id="linearGradient12" inkscape:collect="always">
      <stop style="stop-color:#e40303;stop-opacity:1;" offset="0" id="stop12"></stop>
      <stop style="stop-color:#e40303;stop-opacity:1;" offset="0.15707812" id="stop14"></stop>
      <stop style="stop-color:#ff8c00;stop-opacity:1;" offset="0.15707812" id="stop22"></stop>
      <stop style="stop-color:#ff8c00;stop-opacity:1;" offset="0.33390626" id="stop18"></stop>
      <stop style="stop-color:#ffed00;stop-opacity:1;" offset="0.33390626" id="stop15"></stop>
      <stop style="stop-color:#ffed00;stop-opacity:1;" offset="0.49999374" id="stop19"></stop>
      <stop style="stop-color:#008026;stop-opacity:1;" offset="0.49999374" id="stop16"></stop>
      <stop style="stop-color:#008026;stop-opacity:1;" offset="0.66607815" id="stop20"></stop>
      <stop style="stop-color:#24408e;stop-opacity:1;" offset="0.66607815" id="stop17"></stop>
      <stop style="stop-color:#24408e;stop-opacity:1;" offset="0.84290624" id="stop21"></stop>
      <stop style="stop-color:#732982;stop-opacity:1;" offset="0.84290624" id="stop23"></stop>
      <stop style="stop-color:#732982;stop-opacity:1;" offset="1" id="stop13"></stop>
    </linearGradient>
    <linearGradient inkscape:collect="always" xlink:href="#linearGradient12" id="linearGradient13" x1="36.425781" y1="99.212891" x2="161.42578" y2="99.212891" gradientUnits="userSpaceOnUse" spreadMethod="pad"></linearGradient>
    <linearGradient inkscape:collect="always" xlink:href="#linearGradient26" id="linearGradient27" x1="36.425781" y1="99.212891" x2="161.42578" y2="99.212891" gradientUnits="userSpaceOnUse"></linearGradient>
    <linearGradient inkscape:collect="always" xlink:href="#linearGradient32" id="linearGradient33" x1="36.425781" y1="99.212891" x2="161.42578" y2="99.212891" gradientUnits="userSpaceOnUse"></linearGradient>
    <linearGradient inkscape:collect="always" xlink:href="#linearGradient39" id="linearGradient41" x1="36.425781" y1="99.212891" x2="161.42578" y2="99.212891" gradientUnits="userSpaceOnUse"></linearGradient>
    <rect x="18.915106" y="47.376154" width="116.49584" height="79.019183" id="rect2"></rect>
    <rect x="18.915106" y="47.376154" width="116.49584" height="79.019183" id="rect3"></rect>
    <rect x="18.915106" y="47.376154" width="116.49584" height="79.019183" id="rect19"></rect>
    <rect x="18.915106" y="47.376154" width="116.49584" height="79.019183" id="rect22"></rect>
  </defs>
  <sodipodi:namedview id="namedview2" pagecolor="#ffffff" bordercolor="#666666" borderopacity="1.0" inkscape:showpageshadow="2" inkscape:pageopacity="0.0" inkscape:pagecheckerboard="0" inkscape:deskcolor="#d1d1d1" showguides="false" inkscape:zoom="1.4142136" inkscape:cx="-208.24295" inkscape:cy="111.36932" inkscape:window-width="2560" inkscape:window-height="1377" inkscape:window-x="-8" inkscape:window-y="456" inkscape:window-maximized="1" inkscape:current-layer="svg2">
    <sodipodi:guide position="-36.42578,225.63789" orientation="0,198.425" id="guide4" inkscape:locked="false"></sodipodi:guide>
    <sodipodi:guide position="161.99922,225.63789" orientation="198.425,0" id="guide5" inkscape:locked="false"></sodipodi:guide>
    <sodipodi:guide position="161.99922,27.212891" orientation="0,-198.425" id="guide6" inkscape:locked="false"></sodipodi:guide>
    <sodipodi:guide position="-36.42578,27.212891" orientation="-198.425,0" id="guide7" inkscape:locked="false"></sodipodi:guide>
    <sodipodi:guide position="-0.00078143977,126.42539" orientation="0,-1" id="guide8" inkscape:locked="false"></sodipodi:guide>
    <sodipodi:guide position="62.499218,198.42589" orientation="1,0" id="guide9" inkscape:locked="false"></sodipodi:guide>
    <sodipodi:guide position="32.767579,126.42695" orientation="-1,0" id="guide10" inkscape:locked="false" inkscape:label="" inkscape:color="rgb(0,134,229)"></sodipodi:guide>
    <sodipodi:guide position="92.23047,126.42695" orientation="-1,0" id="guide11" inkscape:locked="false" inkscape:label="" inkscape:color="rgb(0,134,229)"></sodipodi:guide>
    <sodipodi:guide position="19.634766,72" orientation="1,0" id="guide23" inkscape:locked="false"></sodipodi:guide>
    <sodipodi:guide position="41.738282,76.15625" orientation="1,0" id="guide24" inkscape:locked="false"></sodipodi:guide>
    <sodipodi:guide position="83.259766,76.692273" orientation="1,0" id="guide25" inkscape:locked="false"></sodipodi:guide>
    <sodipodi:guide position="105.36328,72" orientation="1,0" id="guide26" inkscape:locked="false"></sodipodi:guide>
  </sodipodi:namedview>
  <g id="g14" inkscape:label="Logo" transform="translate(-36.425781,-27.212891)">
    <path id="path1" style="display:none;fill:#ff7f2f;fill-opacity:1" inkscape:label="innerhexorange" d="m 98.925781,27.212891 -62.5,36 v 71.999999 l 62.5,36 62.499999,-36 V 63.212891 Z"></path>
    <path id="path7" style="display:none;fill:#00bd52;fill-opacity:1" inkscape:label="innerhexgreen" d="m 98.925781,27.212891 -62.5,36 v 71.999999 l 62.5,36 62.499999,-36 V 63.212891 Z"></path>
    <path id="path8" style="display:none;fill:#6400fb;fill-opacity:1" inkscape:label="innerhexpurple" d="m 98.925781,27.212891 -62.5,36 v 71.999999 l 62.5,36 62.499999,-36 V 63.212891 Z"></path>
    <path id="path9" style="display:none;fill:#ffde00;fill-opacity:1" inkscape:label="innerhexyellow" d="m 98.925781,27.212891 -62.5,36 v 71.999999 l 62.5,36 62.499999,-36 V 63.212891 Z"></path>
    <path id="path10" style="display:none;fill:#07c0f8;fill-opacity:1" inkscape:label="innerhexcyan" d="m 98.925781,27.212891 -62.5,36 v 71.999999 l 62.5,36 62.499999,-36 V 63.212891 Z"></path>
    <path id="path11" style="display:none;fill:#d02f3a;fill-opacity:1" inkscape:label="innerhexclaret" d="m 98.925781,27.212891 -62.5,36 v 71.999999 l 62.5,36 62.499999,-36 V 63.212891 Z"></path>
    <path id="path49" style="display:inline;fill:#282828;fill-opacity:1" inkscape:label="innerhexdarkgrey" d="m 98.925781,27.212891 -62.5,36 v 71.999999 l 62.5,36 62.499999,-36 V 63.212891 Z"></path>
    <path id="path12" style="display:none;fill:url(#linearGradient13)" inkscape:label="innerhexpride" d="m 98.925781,27.212891 -62.5,36 v 71.999999 l 62.5,36 62.499999,-36 V 63.212891 Z"></path>
    <path id="path26" style="display:none;fill:url(#linearGradient27)" inkscape:label="innerhexbi" d="m 98.925781,27.212891 -62.5,36 v 71.999999 l 62.5,36 62.499999,-36 V 63.212891 Z"></path>
    <path id="path32" style="display:none;fill:url(#linearGradient33)" inkscape:label="innerhexnb" d="m 98.925781,27.212891 -62.5,36 v 71.999999 l 62.5,36 62.499999,-36 V 63.212891 Z"></path>
    <path id="path39" style="display:none;fill:url(#linearGradient41)" inkscape:label="innerhextrans" d="m 98.925781,27.212891 -62.5,36 v 71.999999 l 62.5,36 62.499999,-36 V 63.212891 Z"></path>
    <path id="path2" style="display:none;fill:#00b4b4;fill-opacity:1" inkscape:label="innerhexteal" d="m 98.925781,27.212891 -62.5,36 v 71.999999 l 62.5,36 62.499999,-36 V 63.212891 Z"></path>
  </g>
  <g id="g22" inkscape:label="Overlay" transform="translate(-36.425781,-27.212891)" style="display:inline">
    <path id="path3" style="stroke-width:0.972688;baseline-shift:baseline;display:inline;overflow:visible;opacity:1;fill:#ffffff;fill-opacity:1;stroke-linecap:square;stroke-dasharray:none;paint-order:stroke fill markers;enable-background:accumulate;stop-color:#000000;stop-opacity:1" transform="matrix(0.9888901,0,0,0.98913307,1.162336,0.84007)" d="m 100.59435,59.583947 c -1.980445,-0.06898 -4.258605,1.317042 -4.258605,1.317042 0,0 -0.05379,3.285554 -0.13397,5.529953 -0.08018,2.244401 -0.186049,4.942129 -0.239521,5.369634 -0.05345,0.427504 -0.45367,0.989984 -0.533847,1.177018 -0.08018,0.187031 0.02673,1.147935 0,1.361687 -0.02672,0.213753 -0.347451,1.096868 -0.320715,1.497653 0.02673,0.400786 0.374171,0.479273 0.481072,0.933497 0.106901,0.454222 -0.0805,2.51302 -0.133969,3.421468 -0.05345,0.908448 -0.374186,2.671969 -0.320715,2.885722 0.05345,0.213753 0.373158,0.265516 0.560236,0.773178 0.187078,0.507663 0.347102,2.272862 0.347102,2.272862 0,0 0.188095,6.464812 0.08119,6.838877 -0.106901,0.374064 -0.882632,1.363048 -0.909368,1.576797 -0.02673,0.213756 0.453988,1.229115 0.50746,1.603179 0.05347,0.37407 0,1.81626 0,1.81626 0,0 -0.106886,2.138946 -0.160358,2.780196 -0.05345,0.64126 -0.533847,2.56374 -0.533847,2.83093 0,0.26719 0.854562,1.23587 0.854562,1.23587 0,0 0.04086,6.35885 0.0609,6.48577 0.02004,0.12691 0.341013,0.34093 0.341013,0.34093 0,0 -0.06195,0.13547 -0.213133,0.21105 l -0.002,0.002 -0.002,0.002 v 0.002 c -0.144208,0.21053 -0.146148,4.64313 -0.146148,4.64313 l -1.021009,0.0365 c 0,0 0.302446,4.38317 0.302446,4.5721 0,0.18893 -0.604892,1.39879 -0.604892,1.6255 0,0.22672 0.718563,2.53262 0.718563,2.53262 l -0.302446,0.26381 -0.184716,2.23634 h -0.002 l -7.023243,-0.17656 0.04669,-0.62503 0.37349,-0.0183 0.01015,-1.78582 -0.430325,0.52966 -0.05887,-0.071 c 0,0 -0.548243,-0.80106 -1.25647,-0.761 -0.708228,0.0401 -1.13468,0.72245 -1.13468,0.72245 l -0.08119,0.0386 c 0,0 -0.09304,-0.14712 -0.11976,-0.22728 -0.0352,-0.0805 -0.347103,-0.21308 -0.347103,-0.21308 l -0.02639,1.88323 0.454684,-0.0122 -0.0954,8.21477 -0.586624,0.0142 -0.08119,-1.33531 -2.659089,-0.0264 -0.119761,1.29472 -0.734802,0.0934 -0.0406,1.25616 0.574444,0.13393 -0.133969,1.92382 -1.295038,0.85435 -0.05277,2.67264 -0.602863,0.57431 -1.122501,-2.45754 -0.962143,1.20137 -0.160358,0.0264 -0.105551,-1.83047 -0.481072,0.20091 0.01218,1.60317 -0.387699,0.067 c 0,0 -0.133803,-0.48164 -0.227342,-1.22978 -0.09354,-0.74813 -0.186745,-1.81626 -0.186745,-1.81626 l -0.320715,-0.1867 -0.294327,-1.61738 -0.320714,-0.0528 -0.05278,-0.96191 c 0,0 0.173389,-0.0536 0.186745,-0.22729 0.01336,-0.17367 -0.0538,-0.3215 -0.294326,-0.33484 -0.240531,-0.0134 -0.332894,0.0817 -0.332894,0.28208 0,0.2004 0.11976,0.26584 0.11976,0.26584 l 0.0406,1.0167 -0.25373,0.0933 -0.160357,1.52201 -0.294327,0.0933 -0.574444,3.7421 -0.227342,0.0528 -0.01421,-2.13689 0.227342,-0.0548 c 0,0 0.01303,-0.28007 0.02639,-0.92132 0.01336,-0.64126 -0.119761,-1.44286 -0.119761,-1.44286 l -0.775398,1.3353 -0.186745,-0.0122 c 0,0 -0.467549,-1.26988 -0.895159,-1.87106 -0.42761,-0.60118 -1.657551,-1.00249 -2.445956,-1.00249 -0.788406,0 -1.817062,0.36157 -2.592105,0.97611 -0.775042,0.61454 -0.921547,1.73712 -0.921547,1.73712 l -0.267938,0.0122 -0.773369,-1.18716 c 0,0 -0.09388,0.7211 -0.133969,1.30892 -0.04009,0.58782 0.02639,1.25414 0.02639,1.25414 h 0.399879 l -0.05887,2.40476 34.42607,19.87536 32.781902,-18.92562 v -0.0406 l -0.44048,-0.0934 c 0,0 -0.32694,-1.93099 -0.43235,-2.05166 l -0.002,-0.002 -0.002,-0.002 h -0.002 v -0.002 h -0.002 -0.002 c -0.006,0 -0.0112,0.002 -0.0162,0.004 -0.0718,0.0415 -0.0664,0.32413 -0.1157,0.73056 -0.0534,0.44086 -0.0406,1.37589 -0.0406,1.37589 l -0.36131,-0.0264 -0.0792,-1.10802 -1.57719,-0.0142 -0.26185,-0.47284 0.30854,0.0183 -0.0467,-1.1344 -1.69085,0.0325 -0.0467,-0.63315 -0.16645,-0.32876 -0.16035,0.10756 0.006,0.11364 -0.0934,0.20091 -0.49528,-1.43069 -0.88095,1.55651 -0.0812,-0.34702 -0.22734,-0.006 -0.0467,1.26225 c 0,0 -0.13363,-0.0605 -0.32071,-0.13394 -0.18708,-0.0735 -0.40597,-0.0609 -0.40597,-0.0609 0,0 -0.20183,-1.28077 -1.65838,-1.3008 -1.45655,-0.02 -1.54065,1.70261 -1.54065,1.70261 l 0.11367,1.43678 h -0.60489 l -0.11367,-3.28754 0.52979,-0.30237 -0.11367,-1.77567 -0.37755,-0.0386 -0.11367,0.86856 -0.79367,-0.0751 -0.45265,-2.41897 -0.83224,1.09584 -0.33898,-0.11364 -0.15224,-6.49795 0.30245,-0.30237 0.0386,-1.09584 -0.26591,-1.02076 -0.67999,0.71839 c 0,0 -0.83163,-1.24805 -1.39856,-1.24805 -0.56694,0 -1.20978,1.09585 -1.20978,1.09585 l -0.90734,-0.67983 0.0386,2.1166 0.30245,0.22729 0.0386,0.37745 -5.94743,-0.10958 c -0.12432,-1.12107 -0.78583,-7.08389 -0.83427,-7.32592 -0.0534,-0.26719 -0.40022,-0.61591 -0.37349,-0.85638 0.0267,-0.24047 0.39919,-0.74816 0.45266,-0.96191 0.0535,-0.21375 -0.0254,-0.56078 0.0548,-0.82797 0.0802,-0.26719 0.13397,-1.65562 0.13397,-2.3236 0,-0.66797 -0.13397,-2.19168 -0.13397,-2.19168 l -0.72262,0.0264 c 0,0 0.0805,-1.9502 0.13397,-2.11052 0.0535,-0.1603 -0.29433,-0.10722 -0.29433,-0.29425 0,-0.18703 0.10724,-0.18603 0.13397,-0.39978 0.0267,-0.21376 0.0528,-1.22945 0.0528,-1.41648 0,-0.18703 -0.23952,-0.5618 -0.23952,-0.90914 0,-0.34735 0.21278,-0.56112 0.23952,-0.80159 0.0267,-0.24048 0,-1.49529 0,-1.68233 0,-0.18703 -0.2923,-0.13359 -0.2923,-0.32063 0,-0.18703 0.23918,-1.01569 0.26591,-1.25616 0.0267,-0.24048 -0.0264,-0.8821 -0.0264,-1.41648 0,-0.53438 0.13397,-3.12519 0.13397,-3.28551 0,-0.16031 -0.18674,-0.80159 -0.18674,-0.9619 0,-0.16032 0.23917,-0.37374 0.26591,-0.66766 0.0267,-0.2939 -0.26556,-3.848311 -0.2923,-4.275816 -0.0267,-0.427505 0.0524,-1.122234 0.0792,-1.603179 0.0267,-0.480939 0.34812,-1.70939 0.26794,-2.136895 -0.0802,-0.427499 -0.69588,-1.123595 -0.72262,-1.818289 -0.0267,-0.694695 -0.21313,-6.705963 -0.21313,-7.10675 0,-0.400786 0.4266,-1.06879 0.56023,-1.282543 0.13363,-0.213753 -0.0518,-1.94987 -0.13194,-2.457531 -0.0802,-0.507662 -0.34812,-2.111548 -0.42829,-2.993278 -0.0802,-0.881727 0.0792,-2.456858 0.0792,-2.670611 0,-0.213753 0.2419,-0.508356 0.37552,-0.748827 0.13363,-0.240471 -0.42864,-3.100541 -0.72262,-5.211346 -0.29398,-2.110805 -0.61504,-6.946432 -0.61504,-6.946432 0,0 -1.84348,-1.254476 -3.90135,-1.548387 -0.12862,-0.01837 -0.25973,-0.0299 -0.39176,-0.0345 z m -36.094601,82.981753 -3.093474,-1.79596 -0.0081,0.006 z M 98.859852,32.091139 40.524444,65.77235 v 67.36052 l 58.337308,33.68122 58.335408,-33.68122 V 65.77235 Z m 0,5.838102 53.282178,30.76216 V 130.21572 L 98.861752,160.97598 45.579572,130.21572 V 68.691401 Z"></path>
  </g>
  <text xml:space="preserve" style="font-weight:300;font-size:19.453px;line-height:1.25;font-family:Kreon;-inkscape-font-specification:'Kreon Light';text-orientation:upright;fill:#ffffff;stroke-width:1" x="-94.177856" y="115.30257" id="text1" transform="rotate(-90)"><tspan sodipodi:role="line" id="tspan1" x="-94.177856" y="115.30257" style="font-style:normal;font-variant:normal;font-weight:bold;font-stretch:normal;font-family:Kreon;-inkscape-font-specification:'Kreon Bold';fill:#ffffff;stroke-width:1">RSTS</tspan></text>
</svg></svg>