<?xml version="1.0" encoding="UTF-8" standalone="no"?>
<!-- Created with Inkscape (http://www.inkscape.org/) -->

<svg
   width="150.57843mm"
   height="162.8186mm"
   viewBox="0 0 150.57843 162.8186"
   version="1.1"
   id="svg1"
   xml:space="preserve"
   inkscape:version="1.4.2 (f4327f4, 2025-05-13)"
   sodipodi:docname="spirebase.svg"
   xmlns:inkscape="http://www.inkscape.org/namespaces/inkscape"
   xmlns:sodipodi="http://sodipodi.sourceforge.net/DTD/sodipodi-0.dtd"
   xmlns="http://www.w3.org/2000/svg"
   xmlns:svg="http://www.w3.org/2000/svg"><sodipodi:namedview
     id="namedview1"
     pagecolor="#ffffff"
     bordercolor="#666666"
     borderopacity="1.0"
     inkscape:showpageshadow="2"
     inkscape:pageopacity="0.0"
     inkscape:pagecheckerboard="0"
     inkscape:deskcolor="#d1d1d1"
     inkscape:document-units="mm"
     inkscape:zoom="1.0467522"
     inkscape:cx="145.68873"
     inkscape:cy="328.15788"
     inkscape:window-width="2560"
     inkscape:window-height="1377"
     inkscape:window-x="-8"
     inkscape:window-y="456"
     inkscape:window-maximized="1"
     inkscape:current-layer="layer1" /><defs
     id="defs1" /><g
     inkscape:label="Layer 1"
     inkscape:groupmode="layer"
     id="layer1"
     transform="translate(-25.718936,-50.900649)"><g
       id="g4"><ellipse
         style="fill:#f79510;fill-opacity:1;stroke:none;stroke-width:2;stroke-linecap:round;-inkscape-stroke:none;paint-order:stroke fill markers"
         id="path2"
         cx="123.6702"
         cy="61.713966"
         rx="38.159389"
         ry="10.813317" /><path
         id="path4"
         style="fill:#000000;fill-opacity:1;stroke:none;stroke-width:2;stroke-linecap:round;-inkscape-stroke:none;paint-order:stroke fill markers"
         d="m 25.718936,213.71925 v -11.50649 l 0.379149,-0.94787 c 0,0 -0.02548,-1.28554 0.153254,-1.28554 0.178733,0 0.357465,1.07239 0.357465,1.07239 l 1.206445,0.0894 0.02233,-0.71493 c 0,0 0.15639,-0.33512 0.245759,-0.35747 0.08936,-0.0223 0.178731,1.02772 0.178731,1.02772 l 3.596992,-0.0894 0.245758,-2.9044 c 0,0 -0.11171,-0.2681 -0.08937,-0.37981 0.02233,-0.11171 0.02233,-0.24576 0.245756,-0.24576 0.223417,0 0.312782,0.35747 0.290441,0.5362 -0.02233,0.17874 0.06702,0.87132 0.05585,1.05006 -0.01117,0.17873 -0.134049,1.87669 -0.134049,1.87669 l 1.664446,-0.12288 0.0782,-2.80387 0.335124,-0.23458 0.145219,0.25692 0.03351,1.84318 1.239957,0.11171 0.245758,-1.39635 0.927174,-0.24576 0.98303,0.067 0.03351,-1.75381 0.323953,-0.32396 0.212243,0.31279 v 1.75381 h 2.100109 l 0.178732,0.21224 1.552739,-1.79849 1.318151,0.9942 0.390978,0.0558 c 0,0 0.100539,-0.916 0.156392,-0.9942 0.05585,-0.0782 0.703757,-0.0894 0.703757,-0.0894 0,0 0.03352,0.0894 0.122881,0.10053 0.08937,0.0112 0.100536,-0.0782 0.189902,-0.0782 0.08937,0 0.357465,0.0223 0.357465,0.0223 0,0 0.0782,0.48034 0.08937,0.55854 0.01116,0.0782 0.01116,0.29044 0.01116,0.29044 l 0.636736,-0.067 c 0,0 0.111707,-1.65327 0.178731,-2.22298 0.06703,-0.56971 0.201076,-1.74265 0.290441,-1.74265 0.08937,0 0.435661,1.77616 0.491514,2.24533 0.05586,0.46918 0.189905,1.69796 0.189905,1.69796 l 0.781955,-0.0112 0.01116,-2.24533 2.613962,0.0223 0.05586,0.98303 2.100106,-0.0894 0.03351,-1.23995 0.793126,-1.01655 0.904833,0.90484 v 2.68098 l 0.659077,0.50269 v -2.72567 c 0,0 0.08937,-0.13405 0.212243,-0.12288 0.122881,0.0112 0.27927,0.23459 0.27927,0.23459 l 0.100537,2.61396 0.312782,-0.15639 0.07819,-2.49108 c 0,0 0.08937,-0.16757 0.201076,-0.16757 0.111707,0 0.245755,0.2681 0.245755,0.2681 l 0.05586,2.0666 1.664447,-1.29581 5.172072,3.00494 0.100536,-4.02149 h -0.670248 c 0,0 -0.111707,-1.11707 -0.04468,-2.1001 0.06702,-0.98303 0.223416,-2.18948 0.223416,-2.18948 l 1.29581,1.9884 0.446831,-0.0223 c 0,0 0.245759,-1.87669 1.541569,-2.9044 1.29581,-1.02771 3.016112,-1.63094 4.334264,-1.63094 1.318151,0 3.373575,0.67025 4.088505,1.67562 0.714931,1.00537 1.496886,3.12782 1.496886,3.12782 l 0.312782,0.0223 1.29581,-2.23415 c 0,0 0.223417,1.34049 0.201076,2.41289 -0.02233,1.07239 -0.04469,1.54156 -0.04469,1.54156 l -0.379804,0.0894 0.02233,3.57465 0.379807,-0.0894 0.960686,-6.25563 0.491514,-0.1564 0.268099,-2.54693 0.42449,-0.15639 -0.06702,-1.69797 c 0,0 -0.201076,-0.1117 -0.201076,-0.44683 0,-0.33512 0.156393,-0.49151 0.558541,-0.46917 0.402148,0.0223 0.513855,0.2681 0.491514,0.55854 -0.02233,0.29044 -0.312783,0.37981 -0.312783,0.37981 l 0.08937,1.60859 0.536199,0.0894 0.491514,2.70332 0.536197,0.31279 c 0,0 0.156392,1.78732 0.312782,3.03845 0.15639,1.25113 0.379807,2.05542 0.379807,2.05542 l 0.647906,-0.1117 -0.02233,-2.68099 0.804297,-0.33513 0.178731,3.0608 0.2681,-0.0447 1.608592,-2.01074 1.876692,4.11084 1.005369,-0.96068 0.08937,-4.46832 2.167133,-1.42986 0.223415,-3.21718 -0.960687,-0.22342 0.06703,-2.1001 1.228785,-0.1564 0.201076,-2.16713 4.445971,0.0447 0.134048,2.23415 0.983031,-0.0223 0.15639,-13.74006 -0.759614,0.0223 0.04468,-3.15016 c 0,0 0.536199,0.22341 0.580882,0.35746 0.04468,0.13405 0.201073,0.37981 0.201073,0.37981 l 0.134051,-0.067 c 0,0 0.714928,-1.13942 1.89903,-1.20645 1.1841,-0.067 2.10011,1.27347 2.10011,1.27347 l 0.098,0.1175 0.7188,-0.88468 -0.0158,2.9858 -0.62402,0.0316 -0.079,1.04265 11.74373,0.29603 20.26949,4.39325 11.51023,0.20813 -0.0636,-0.632 -0.50539,-0.37879 -0.0631,-3.5388 1.51671,1.1374 c 0,0 1.07422,-1.83245 2.02209,-1.83245 l 1.5e-4,-9e-5 c 0.94787,0 2.33785,2.08514 2.33785,2.08514 l 1.13739,-1.20044 0.44236,1.70584 -0.0631,1.83296 -0.5054,0.5054 0.2527,10.8691 0.56844,0.18914 1.39062,-1.83245 0.75809,4.0442 1.32705,0.12661 0.18965,-1.45366 0.63201,0.0636 0.18913,2.96985 -0.8847,0.50539 0.18965,5.49786 h 1.01131 l -0.18965,-2.40141 c 0,0 0.14032,-2.8819 2.57555,-2.8484 2.43523,0.0335 2.77038,2.17816 2.77038,2.17816 0,0 0.36831,-0.0226 0.68109,0.10025 0.31278,0.12288 0.5364,0.22376 0.5364,0.22376 l 0.078,-2.1115 0.37982,0.0114 0.13436,0.58084 1.47433,-2.60294 0.82683,2.39055 0.15606,-0.33486 -0.0109,-0.19017 0.26768,-0.1788 0.27957,0.54777 0.078,1.06092 2.82618,-0.0558 0.0786,1.89911 -0.51418,-0.0336 0.43563,0.79323 2.63654,0.0222 0.13384,1.85415 0.60358,0.045 c 0,0 -0.0226,-1.56388 0.0667,-2.30115 0.0894,-0.73728 0.0674,-1.22887 0.22376,-1.22887 0.15639,0 0.73691,3.44062 0.73691,3.44062 l 0.73742,0.15606 v 12.8912 l -44.18539,-0.0474 z m 87.330634,-19.72138 c 0,0 0.7583,-2.52766 0.63192,-5.24489 -0.12639,-2.71724 -0.63192,-4.61298 -0.63192,-4.61298 l 0.88468,-1.13745 1.01107,-12.19596 0.50553,-0.44234 c 0,0 -1.20064,-3.85468 -1.20064,-4.23383 0,-0.37914 1.01106,-2.40127 1.01106,-2.71723 0,-0.31596 -0.50553,-7.64617 -0.50553,-7.64617 l 1.70617,-0.0632 c 0,0 0,-7.64617 0.25277,-7.77255 0.25277,-0.12639 0.35512,-0.35407 0.35512,-0.35407 0,0 -0.5362,-0.35747 -0.56971,-0.56971 -0.0335,-0.21225 -0.10054,-10.84683 -0.10054,-10.84683 0,0 -1.42986,-1.61977 -1.42986,-2.0666 0,-0.44683 0.8043,-3.66401 0.89367,-4.73641 0.0894,-1.07239 0.26809,-4.64704 0.26809,-4.64704 0,0 0.0894,-2.41289 0,-3.03846 -0.0894,-0.62556 -0.89366,-2.32352 -0.84897,-2.68099 0.0447,-0.35746 1.34049,-2.01074 1.51922,-2.6363 0.17873,-0.62556 -0.13405,-11.43888 -0.13405,-11.43888 0,0 -0.2681,-2.94909 -0.58088,-3.79807 -0.31278,-0.84898 -0.84898,-0.93834 -0.93834,-1.295807 -0.0894,-0.357466 0.44683,-3.306551 0.53619,-4.825778 0.0894,-1.519227 0.40215,-4.959829 0.22342,-5.71944 -0.17873,-0.759613 -0.75961,-0.893664 -0.8043,-1.56391 -0.0447,-0.670247 0.49152,-2.144791 0.5362,-2.502257 0.0447,-0.357465 -0.13405,-1.966058 0,-2.278837 0.13405,-0.312783 0.8043,-1.25113 0.89366,-1.966058 0.0894,-0.714931 0.2681,-5.227926 0.40215,-8.981311 0.13405,-3.753381 0.22342,-9.249407 0.22342,-9.249407 0,0 4.33426,-2.636305 7.77486,-2.144792 3.4406,0.491517 6.52374,2.591623 6.52374,2.591623 0,0 0.5362,8.087646 1.02771,11.617613 0.49151,3.529968 1.42986,8.311063 1.20644,8.713211 -0.22341,0.402148 -0.62556,0.893662 -0.62556,1.251127 0,0.357466 -0.2681,2.993771 -0.13405,4.468313 0.13405,1.474544 0.58088,4.155532 0.71493,5.004511 0.13405,0.848979 0.44683,3.753382 0.22342,4.110847 -0.22342,0.357466 -0.93835,1.474545 -0.93835,2.144792 0,0.67025 0.31278,10.72395 0.35747,11.88571 0.0447,1.16176 1.07239,2.32353 1.20644,3.03845 0.13405,0.71493 -0.40215,2.77036 -0.44683,3.57465 -0.0447,0.8043 -0.17873,1.96606 -0.13405,2.68099 0.0447,0.71493 0.5362,6.65779 0.49152,7.1493 -0.0447,0.49152 -0.44684,0.84898 -0.44684,1.11708 0,0.2681 0.31279,1.3405 0.31279,1.6086 0,0.2681 -0.22342,4.60236 -0.22342,5.49602 0,0.89366 0.0894,1.96606 0.0447,2.36821 -0.0447,0.40215 -0.44683,1.78732 -0.44683,2.1001 0,0.31279 0.49152,0.22342 0.49152,0.5362 0,0.31278 0.0447,2.41289 0,2.81504 -0.0447,0.40215 -0.40215,0.75961 -0.40215,1.34049 0,0.58088 0.40215,1.20645 0.40215,1.51923 0,0.31278 -0.0447,2.01074 -0.0894,2.36821 -0.0447,0.35746 -0.22341,0.35746 -0.22341,0.67024 0,0.31278 0.58088,0.22342 0.49151,0.49151 -0.0894,0.2681 -0.22342,3.52997 -0.22342,3.52997 l 1.20645,-0.0447 c 0,0 0.22341,2.54694 0.22341,3.66402 0,1.11707 -0.0894,3.4406 -0.22341,3.88743 -0.13405,0.44683 0,1.02771 -0.0894,1.38518 -0.0894,0.35746 -0.71493,1.20644 -0.75961,1.60859 -0.0447,0.40215 0.5362,0.98303 0.62556,1.42986 0.0894,0.44683 1.42986,12.55596 1.42986,12.55596 l 0.40215,3.30655 1.20644,10.94737 z" /></g></g></svg>
